<?xml version="1.0" standalone="no"?>
<!DOCTYPE svg PUBLIC "-//W3C//DTD SVG 20010904//EN"
 "http://www.w3.org/TR/2001/REC-SVG-20010904/DTD/svg10.dtd">
<svg version="1.0" xmlns="http://www.w3.org/2000/svg"
 width="528.000000pt" height="528.000000pt" viewBox="0 0 528.000000 528.000000"
 preserveAspectRatio="xMidYMid meet">
<metadata>
Created by potrace 1.11, written by Peter Selinger 2001-2013
</metadata>
<g transform="translate(0.000000,528.000000) scale(0.100000,-0.100000)"
fill="#000000" stroke="none">
<path d="M975 5229 c-299 -31 -564 -216 -738 -515 -78 -132 -129 -304 -147
-489 -6 -67 -10 -473 -10 -1046 l0 -936 698 -5 c383 -3 698 -5 699 -4 1 1 -33
33 -75 71 -407 368 -552 825 -406 1286 292 926 1689 1380 2799 908 470 -199
806 -547 920 -952 l17 -57 231 2 232 3 3 300 c3 328 -7 493 -39 624 -53 216
-158 400 -310 547 -166 159 -340 241 -559 264 -123 12 -3193 12 -3315 -1z"/>
<path d="M3790 2993 c0 -5 19 -21 41 -38 74 -54 225 -221 294 -324 243 -365
271 -779 80 -1166 -231 -465 -762 -799 -1435 -902 -159 -24 -518 -24 -685 0
-591 87 -1084 361 -1351 753 -80 116 -120 196 -160 319 l-33 100 -230 3 -231
2 0 -287 c0 -318 10 -465 42 -593 52 -215 157 -399 309 -546 166 -159 340
-241 559 -264 140 -14 3160 -14 3300 0 219 23 393 105 559 264 201 194 314
441 341 752 7 76 10 446 8 1024 l-3 905 -702 3 c-387 1 -703 -1 -703 -5z"/>
</g>
</svg>
